<svg width="59" height="32" viewBox="0 0 59 32" fill="none" xmlns="http://www.w3.org/2000/svg">
<path d="M27.0002 10.126C27.0002 12.3366 27.0002 14.6654 27.0002 16.876" stroke="white" stroke-width="3.25651" stroke-linecap="round" stroke-linejoin="round"/>
<path d="M20.7501 10.1257C20.7501 12.3364 20.7501 14.6651 20.7501 16.8757" stroke="white" stroke-width="3.25651" stroke-linecap="round" stroke-linejoin="round"/>
<path d="M33.2506 10.126C33.2506 12.3366 33.2506 14.6654 33.2506 16.876" stroke="#2AF598" stroke-width="3.25651" stroke-linecap="round" stroke-linejoin="round"/>
<path d="M31.6879 21.377H22.3129C16.0629 21.377 14.5004 20.252 14.5004 15.752V11.252C14.5004 6.75195 16.0629 5.62695 22.3129 5.62695L31.6879 5.62695C37.9379 5.62695 39.5004 6.75195 39.5004 11.252V15.752C39.5004 20.252 37.9379 21.377 31.6879 21.377Z" stroke="white" stroke-width="1.62825" stroke-linecap="round" stroke-linejoin="round"/>
<path d="M9.51262 31.07C8.92595 31.07 8.47262 30.92 8.15262 30.62C7.83262 30.3133 7.67262 29.8633 7.67262 29.27V24.48H8.92262V29.24C8.92262 29.4933 8.98595 29.69 9.11262 29.83C9.24595 29.97 9.42928 30.04 9.66262 30.04C9.94262 30.04 10.176 29.9667 10.3626 29.82L10.7126 30.71C10.566 30.83 10.386 30.92 10.1726 30.98C9.95928 31.04 9.73928 31.07 9.51262 31.07ZM6.79262 26.7V25.7H10.3526V26.7H6.79262ZM13.9651 31.07C13.4185 31.07 12.9318 30.9533 12.5051 30.72C12.0785 30.48 11.7418 30.1533 11.4951 29.74C11.2485 29.3267 11.1251 28.8567 11.1251 28.33C11.1251 27.7967 11.2485 27.3267 11.4951 26.92C11.7418 26.5067 12.0785 26.1833 12.5051 25.95C12.9318 25.7167 13.4185 25.6 13.9651 25.6C14.5185 25.6 15.0085 25.7167 15.4351 25.95C15.8685 26.1833 16.2051 26.5033 16.4451 26.91C16.6918 27.3167 16.8151 27.79 16.8151 28.33C16.8151 28.8567 16.6918 29.3267 16.4451 29.74C16.2051 30.1533 15.8685 30.48 15.4351 30.72C15.0085 30.9533 14.5185 31.07 13.9651 31.07ZM13.9651 30C14.2718 30 14.5451 29.9333 14.7851 29.8C15.0251 29.6667 15.2118 29.4733 15.3451 29.22C15.4851 28.9667 15.5551 28.67 15.5551 28.33C15.5551 27.9833 15.4851 27.6867 15.3451 27.44C15.2118 27.1867 15.0251 26.9933 14.7851 26.86C14.5451 26.7267 14.2751 26.66 13.9751 26.66C13.6685 26.66 13.3951 26.7267 13.1551 26.86C12.9218 26.9933 12.7351 27.1867 12.5951 27.44C12.4551 27.6867 12.3851 27.9833 12.3851 28.33C12.3851 28.67 12.4551 28.9667 12.5951 29.22C12.7351 29.4733 12.9218 29.6667 13.1551 29.8C13.3951 29.9333 13.6651 30 13.9651 30ZM20.7741 31V25.66H21.9641V27.13L21.8241 26.7C21.9841 26.34 22.2341 26.0667 22.5741 25.88C22.9208 25.6933 23.3508 25.6 23.8641 25.6V26.79C23.8108 26.7767 23.7608 26.77 23.7141 26.77C23.6674 26.7633 23.6208 26.76 23.5741 26.76C23.1008 26.76 22.7241 26.9 22.4441 27.18C22.1641 27.4533 22.0241 27.8633 22.0241 28.41V31H20.7741ZM27.3857 31.07C26.7923 31.07 26.2723 30.9533 25.8257 30.72C25.3857 30.48 25.0423 30.1533 24.7957 29.74C24.5557 29.3267 24.4357 28.8567 24.4357 28.33C24.4357 27.7967 24.5523 27.3267 24.7857 26.92C25.0257 26.5067 25.3523 26.1833 25.7657 25.95C26.1857 25.7167 26.6623 25.6 27.1957 25.6C27.7157 25.6 28.179 25.7133 28.5857 25.94C28.9923 26.1667 29.3123 26.4867 29.5457 26.9C29.779 27.3133 29.8957 27.8 29.8957 28.36C29.8957 28.4133 29.8923 28.4733 29.8857 28.54C29.8857 28.6067 29.8823 28.67 29.8757 28.73H25.4257V27.9H29.2157L28.7257 28.16C28.7323 27.8533 28.669 27.5833 28.5357 27.35C28.4023 27.1167 28.219 26.9333 27.9857 26.8C27.759 26.6667 27.4957 26.6 27.1957 26.6C26.889 26.6 26.619 26.6667 26.3857 26.8C26.159 26.9333 25.979 27.12 25.8457 27.36C25.719 27.5933 25.6557 27.87 25.6557 28.19V28.39C25.6557 28.71 25.729 28.9933 25.8757 29.24C26.0223 29.4867 26.229 29.6767 26.4957 29.81C26.7623 29.9433 27.069 30.01 27.4157 30.01C27.7157 30.01 27.9857 29.9633 28.2257 29.87C28.4657 29.7767 28.679 29.63 28.8657 29.43L29.5357 30.2C29.2957 30.48 28.9923 30.6967 28.6257 30.85C28.2657 30.9967 27.8523 31.07 27.3857 31.07ZM33.1064 31.07C32.5197 31.07 32.0664 30.92 31.7464 30.62C31.4264 30.3133 31.2664 29.8633 31.2664 29.27V24.48H32.5164V29.24C32.5164 29.4933 32.5797 29.69 32.7064 29.83C32.8397 29.97 33.023 30.04 33.2564 30.04C33.5364 30.04 33.7697 29.9667 33.9564 29.82L34.3064 30.71C34.1597 30.83 33.9797 30.92 33.7664 30.98C33.553 31.04 33.333 31.07 33.1064 31.07ZM30.3864 26.7V25.7H33.9464V26.7H30.3864ZM37.5946 31.07C37.1413 31.07 36.7413 30.9867 36.3946 30.82C36.048 30.6467 35.778 30.3867 35.5846 30.04C35.3913 29.6867 35.2946 29.2433 35.2946 28.71V25.66H36.5446V28.54C36.5446 29.02 36.6513 29.38 36.8646 29.62C37.0846 29.8533 37.3946 29.97 37.7946 29.97C38.088 29.97 38.3413 29.91 38.5546 29.79C38.7746 29.67 38.9446 29.49 39.0646 29.25C39.1913 29.01 39.2546 28.7133 39.2546 28.36V25.66H40.5046V31H39.3146V29.56L39.5246 30C39.3446 30.3467 39.0813 30.6133 38.7346 30.8C38.388 30.98 38.008 31.07 37.5946 31.07ZM42.1413 31V25.66H43.3313V27.13L43.1913 26.7C43.3513 26.34 43.6013 26.0667 43.9413 25.88C44.288 25.6933 44.718 25.6 45.2313 25.6V26.79C45.178 26.7767 45.128 26.77 45.0813 26.77C45.0346 26.7633 44.988 26.76 44.9413 26.76C44.468 26.76 44.0913 26.9 43.8113 27.18C43.5313 27.4533 43.3913 27.8633 43.3913 28.41V31H42.1413ZM49.3217 25.6C49.7483 25.6 50.1283 25.6833 50.4617 25.85C50.8017 26.0167 51.0683 26.2733 51.2617 26.62C51.455 26.96 51.5517 27.4 51.5517 27.94V31H50.3017V28.1C50.3017 27.6267 50.1883 27.2733 49.9617 27.04C49.7417 26.8067 49.4317 26.69 49.0317 26.69C48.7383 26.69 48.4783 26.75 48.2517 26.87C48.025 26.99 47.8483 27.17 47.7217 27.41C47.6017 27.6433 47.5417 27.94 47.5417 28.3V31H46.2917V25.66H47.4817V27.1L47.2717 26.66C47.4583 26.32 47.7283 26.06 48.0817 25.88C48.4417 25.6933 48.855 25.6 49.3217 25.6Z" fill="white"/>
</svg>
