<svg width="42" height="33" viewBox="0 0 42 33" fill="none" xmlns="http://www.w3.org/2000/svg">
<path d="M5.85637 32.07C5.2697 32.07 4.81637 31.92 4.49637 31.62C4.17637 31.3133 4.01637 30.8633 4.01637 30.27V25.48H5.26637V30.24C5.26637 30.4933 5.3297 30.69 5.45637 30.83C5.5897 30.97 5.77303 31.04 6.00637 31.04C6.28637 31.04 6.5197 30.9667 6.70637 30.82L7.05637 31.71C6.9097 31.83 6.7297 31.92 6.51637 31.98C6.30303 32.04 6.08303 32.07 5.85637 32.07ZM3.13637 27.7V26.7H6.69637V27.7H3.13637ZM10.3089 32.07C9.7622 32.07 9.27553 31.9533 8.84887 31.72C8.4222 31.48 8.08553 31.1533 7.83887 30.74C7.5922 30.3267 7.46887 29.8567 7.46887 29.33C7.46887 28.7967 7.5922 28.3267 7.83887 27.92C8.08553 27.5067 8.4222 27.1833 8.84887 26.95C9.27553 26.7167 9.7622 26.6 10.3089 26.6C10.8622 26.6 11.3522 26.7167 11.7789 26.95C12.2122 27.1833 12.5489 27.5033 12.7889 27.91C13.0355 28.3167 13.1589 28.79 13.1589 29.33C13.1589 29.8567 13.0355 30.3267 12.7889 30.74C12.5489 31.1533 12.2122 31.48 11.7789 31.72C11.3522 31.9533 10.8622 32.07 10.3089 32.07ZM10.3089 31C10.6155 31 10.8889 30.9333 11.1289 30.8C11.3689 30.6667 11.5555 30.4733 11.6889 30.22C11.8289 29.9667 11.8989 29.67 11.8989 29.33C11.8989 28.9833 11.8289 28.6867 11.6889 28.44C11.5555 28.1867 11.3689 27.9933 11.1289 27.86C10.8889 27.7267 10.6189 27.66 10.3189 27.66C10.0122 27.66 9.73887 27.7267 9.49887 27.86C9.26553 27.9933 9.07887 28.1867 8.93887 28.44C8.79887 28.6867 8.72887 28.9833 8.72887 29.33C8.72887 29.67 8.79887 29.9667 8.93887 30.22C9.07887 30.4733 9.26553 30.6667 9.49887 30.8C9.73887 30.9333 10.0089 31 10.3089 31ZM19.1279 32.07C18.5412 32.07 18.0879 31.92 17.7679 31.62C17.4479 31.3133 17.2879 30.8633 17.2879 30.27V25.48H18.5379V30.24C18.5379 30.4933 18.6012 30.69 18.7279 30.83C18.8612 30.97 19.0445 31.04 19.2779 31.04C19.5579 31.04 19.7912 30.9667 19.9779 30.82L20.3279 31.71C20.1812 31.83 20.0012 31.92 19.7879 31.98C19.5745 32.04 19.3545 32.07 19.1279 32.07ZM16.4079 27.7V26.7H19.9679V27.7H16.4079ZM24.6461 32V30.92L24.5761 30.69V28.8C24.5761 28.4333 24.4661 28.15 24.2461 27.95C24.0261 27.7433 23.6928 27.64 23.2461 27.64C22.9461 27.64 22.6495 27.6867 22.3561 27.78C22.0695 27.8733 21.8261 28.0033 21.6261 28.17L21.1361 27.26C21.4228 27.04 21.7628 26.8767 22.1561 26.77C22.5561 26.6567 22.9695 26.6 23.3961 26.6C24.1695 26.6 24.7661 26.7867 25.1861 27.16C25.6128 27.5267 25.8261 28.0967 25.8261 28.87V32H24.6461ZM22.9661 32.07C22.5661 32.07 22.2161 32.0033 21.9161 31.87C21.6161 31.73 21.3828 31.54 21.2161 31.3C21.0561 31.0533 20.9761 30.7767 20.9761 30.47C20.9761 30.17 21.0461 29.9 21.1861 29.66C21.3328 29.42 21.5695 29.23 21.8961 29.09C22.2228 28.95 22.6561 28.88 23.1961 28.88H24.7461V29.71H23.2861C22.8595 29.71 22.5728 29.78 22.4261 29.92C22.2795 30.0533 22.2061 30.22 22.2061 30.42C22.2061 30.6467 22.2961 30.8267 22.4761 30.96C22.6561 31.0933 22.9061 31.16 23.2261 31.16C23.5328 31.16 23.8061 31.09 24.0461 30.95C24.2928 30.81 24.4695 30.6033 24.5761 30.33L24.7861 31.08C24.6661 31.3933 24.4495 31.6367 24.1361 31.81C23.8295 31.9833 23.4395 32.07 22.9661 32.07ZM28.4504 30.81L28.4804 29.24L31.2704 26.66H32.7704L30.4004 29.04L29.7404 29.59L28.4504 30.81ZM27.4304 32V24.58H28.6804V32H27.4304ZM31.4604 32L29.5104 29.59L30.3004 28.59L32.9804 32H31.4604ZM36.0829 32.07C35.4896 32.07 34.9696 31.9533 34.5229 31.72C34.0829 31.48 33.7396 31.1533 33.4929 30.74C33.2529 30.3267 33.1329 29.8567 33.1329 29.33C33.1329 28.7967 33.2496 28.3267 33.4829 27.92C33.7229 27.5067 34.0496 27.1833 34.4629 26.95C34.8829 26.7167 35.3596 26.6 35.8929 26.6C36.4129 26.6 36.8763 26.7133 37.2829 26.94C37.6896 27.1667 38.0096 27.4867 38.2429 27.9C38.4763 28.3133 38.5929 28.8 38.5929 29.36C38.5929 29.4133 38.5896 29.4733 38.5829 29.54C38.5829 29.6067 38.5796 29.67 38.5729 29.73H34.1229V28.9H37.9129L37.4229 29.16C37.4296 28.8533 37.3663 28.5833 37.2329 28.35C37.0996 28.1167 36.9163 27.9333 36.6829 27.8C36.4563 27.6667 36.1929 27.6 35.8929 27.6C35.5863 27.6 35.3163 27.6667 35.0829 27.8C34.8563 27.9333 34.6763 28.12 34.5429 28.36C34.4163 28.5933 34.3529 28.87 34.3529 29.19V29.39C34.3529 29.71 34.4263 29.9933 34.5729 30.24C34.7196 30.4867 34.9263 30.6767 35.1929 30.81C35.4596 30.9433 35.7663 31.01 36.1129 31.01C36.4129 31.01 36.6829 30.9633 36.9229 30.87C37.1629 30.7767 37.3763 30.63 37.5629 30.43L38.2329 31.2C37.9929 31.48 37.6896 31.6967 37.3229 31.85C36.9629 31.9967 36.5496 32.07 36.0829 32.07Z" fill="white"/>
<path d="M21.0002 10.126C21.0002 12.3366 21.0002 14.6654 21.0002 16.876" stroke="#2AF598" stroke-width="3.25651" stroke-linecap="round" stroke-linejoin="round"/>
<path d="M14.7501 10.1257C14.7501 12.3364 14.7501 14.6651 14.7501 16.8757" stroke="#2AF598" stroke-width="3.25651" stroke-linecap="round" stroke-linejoin="round"/>
<path d="M27.2506 10.126C27.2506 12.3366 27.2506 14.6654 27.2506 16.876" stroke="#2AF598" stroke-width="3.25651" stroke-linecap="round" stroke-linejoin="round"/>
<path d="M25.6879 21.377H16.3129C10.0629 21.377 8.50037 20.252 8.50037 15.752V11.252C8.50037 6.75195 10.0629 5.62695 16.3129 5.62695L25.6879 5.62695C31.9379 5.62695 33.5004 6.75195 33.5004 11.252V15.752C33.5004 20.252 31.9379 21.377 25.6879 21.377Z" stroke="white" stroke-width="1.62825" stroke-linecap="round" stroke-linejoin="round"/>
</svg>
