<svg width="40" height="40" viewBox="0 0 40 40" fill="none" xmlns="http://www.w3.org/2000/svg">
<path fill-rule="evenodd" clip-rule="evenodd" d="M24.2325 10.1772C23.5083 10.916 23.5083 12.0984 24.2325 12.8372L27.2725 15.8772C28.0113 16.6014 29.1937 16.6014 29.9325 15.8772L37.0955 8.71424C39.0518 13.0372 38.1257 18.1199 34.7704 21.4752C31.4152 24.8304 26.3325 25.7565 22.0095 23.8002L8.88051 36.9292C7.3065 38.5033 4.75452 38.5033 3.18051 36.9292C1.6065 35.3552 1.6065 32.8033 3.18051 31.2292L16.3095 18.1002C14.3533 13.7772 15.2793 8.69455 18.6346 5.33931C21.9898 1.98408 27.0725 1.058 31.3955 3.01424L24.2515 10.1582L24.2325 10.1772Z" stroke="#3D003E" stroke-width="3" stroke-linecap="round" stroke-linejoin="round"/>
</svg>
