<svg width="38" height="38" viewBox="0 0 38 38" fill="none" xmlns="http://www.w3.org/2000/svg">
<path fill-rule="evenodd" clip-rule="evenodd" d="M22.3818 12.0253C21.8482 12.5697 21.8482 13.441 22.3818 13.9853L24.6218 16.2253C25.1662 16.7589 26.0375 16.7589 26.5818 16.2253L31.8598 10.9473C33.3013 14.1327 32.6189 17.8778 30.1466 20.3501C27.6744 22.8224 23.9292 23.5048 20.7438 22.0633L11.0698 31.7373C9.91005 32.8971 8.02965 32.8971 6.86985 31.7373C5.71005 30.5775 5.71005 28.6971 6.86985 27.5373L16.5438 17.8633C15.1024 14.678 15.7848 10.9328 18.2571 8.46055C20.7293 5.98827 24.4745 5.30589 27.6598 6.74734L22.3958 12.0113L22.3818 12.0253Z" stroke="#C7C7CC" stroke-width="3" stroke-linecap="round" stroke-linejoin="round"/>
</svg>
